<svg enable-background="new 0 0 1077 220" viewBox="0 0 1077 220" xmlns="http://www.w3.org/2000/svg"><g fill="#111"><path d="m246.4 51.4h55.2c39.9 0 50.1 23.5 50.1 42.6s-10.3 42.6-50.1 42.6h-34.1v67.2h-21.1zm21.2 67.2h27.9c16.8 0 33.5-3.8 33.5-24.5s-16.8-24.5-33.5-24.5h-27.9z"/><path d="m379.4 50.7c8 0 14.5 6.3 14.6 14 .1 7.8-6.2 14.2-14.2 14.4s-14.6-5.9-14.9-13.7c-.1-3.9 1.4-7.6 4.1-10.4 2.6-2.7 6.4-4.3 10.4-4.3zm-9.8 51.1h19.6v102.1h-19.6z"/><path d="m412 101.8h19.9v15.8h.5c6.9-12 20.3-19.2 34.4-18.3 20.3 0 37.8 11.9 37.8 39v65.7h-19.6v-60.2c0-19.2-11.3-26.3-23.9-26.3-16.5 0-29.1 10.3-29.1 34v52.5h-20z"/><path d="m540.9 160c0 17.8 17 29.5 35.3 29.5 11.5-.3 22.2-6 28.7-15.2l15.1 11.2c-11 14.1-28.4 22-46.5 21.1-33.2 0-53.8-23.2-53.8-53.6-.6-14.2 4.9-28 15.1-38.1s24.2-15.7 38.8-15.5c36.9 0 51 27.5 51 53.8v6.9h-83.7zm62.8-15.5c-.5-17-10.2-29.5-30.2-29.5-17.1-.1-31.4 12.8-32.5 29.5z"/><path d="m714.6 129c-6.5-7.5-16-11.7-26.1-11.4-21.6 0-32.7 17-32.7 36.2-.5 9.1 2.8 17.9 9.2 24.5s15.3 10.3 24.6 10.2c9.8.3 19.2-3.9 25.4-11.4l14.1 13.6c-10.3 10.6-24.8 16.3-39.7 15.7-14.7.7-29-4.6-39.4-14.8-10.4-10.1-16-24.1-15.3-38.4-.7-14.4 4.9-28.4 15.3-38.6s24.7-15.7 39.5-15.2c15.1-.4 29.7 5.5 40.2 16.1z"/><path d="m787.9 99.2c30.2.5 54.4 24.7 54.1 54.2s-25 53.2-55.3 53c-30.2-.2-54.7-24.1-54.7-53.6 0-14.4 5.9-28.1 16.4-38.2 10.6-10.1 24.8-15.6 39.5-15.4zm0 89.2c21.1 0 34.4-14.7 34.4-35.6 0-20.8-13.3-35.5-34.4-35.5s-34.5 14.7-34.5 35.5 13.3 35.6 34.5 35.6z"/><path d="m859.7 101.8h19.9v15.8c6.9-12.1 20.4-19.2 34.5-18.3 20.3 0 37.8 11.9 37.8 39v65.7h-19.9v-60.2c0-19.2-11.3-26.3-23.8-26.3-16.6 0-29.1 10.3-29.1 34v52.5h-19.3v-102.2z"/><path d="m988.8 160c0 17.8 17 29.5 35.3 29.5 11.5-.4 22.2-6 28.7-15.2l15.1 11.2c-11 14-28.3 21.8-46.4 20.8-33.1 0-53.8-23.2-53.8-53.6-.6-14.2 4.9-28.1 15.1-38.2 10.2-10.2 24.3-15.7 38.9-15.4 36.9 0 51 27.5 51 53.8v6.9zm62.7-15.6c-.5-17-10.1-29.5-30.2-29.5-17.1-.1-31.4 12.8-32.5 29.5z"/><path clip-rule="evenodd" d="m127 6.4c-2.1-2.5-5.6-3.1-8.4-1.5l-2.6 1.4-28.3 16.1 6.6 11.6 18.4-10.5-4.5 24.6 13.1 2.4 4.6-24.7 13.6 16.2 10.2-8.6-20.6-24.6h-.1zm-39.7 207.5c6.8 0 12.3-5.4 12.3-12s-5.5-12-12.3-12-12.3 5.4-12.3 12c-.1 6.6 5.5 12 12.3 12zm16.5-65.9-4.4 24.7-13.2-2.4 4.4-24.6-18.4 10.6-6.7-11.6 28.1-16.1 2.6-1.5c2.8-1.6 6.3-1 8.4 1.5l2 2.4 20.9 24.5-10.2 8.7zm10.7-59-4.4 24.7-13.2-2.4 4.4-24.5-18.3 10.5-6.6-11.6 28-16v-.2h.2l2.6-1.5c2.8-1.6 6.3-1 8.4 1.5l2 2.3 20.8 24.6-10.2 8.7zm-86.3 97.6h-.1l-2.7-.8c-2.9-.8-4.8-3.6-4.6-6.6l2.4-33.4 12.7.9-1.5 20.3 19.7-13.4 7.1 10.5-19.3 13.1 19.7 5.7-3.5 12.2zm130.7 13.8-.9 2.9c-.9 2.8-3.5 4.7-6.5 4.5l-2.8-.2-.2.1-.1-.1-31-2.1.8-12.7 20.6 1.4-13.5-18.9 10.3-7.4 13.8 19.4 6-19.6 12.1 3.7zm36.4-68.8 1.5 2.7c1.5 2.7.9 6.1-1.5 8.1l-2.2 1.9v.1h-.1l-24.1 20.4-8.4-9.9 15.8-13.4-23.7-4.2 2.3-12.8 23.9 4.2-10-18 11.3-6.3zm-24.5-55.8-21.4 11.5-6.2-11.4 21.1-11.3-19.3-7.9 4.9-12 29.4 11.9.1-.1.1.2 2.7 1.1c2.9 1.2 4.5 4.2 4 7.2l-.5 3-5.5 30.5-12.8-2.3zm-143.6 26.8 23.8 4-2.2 12.8-24-4.1 10.2 18-11.3 6.4-15.4-27.1-1.5-2.6c-1.5-2.7-.9-6.1 1.4-8.1l2.2-1.9v-.1h.1l23.8-20.5 8.5 9.9zm35.9-55.4 15.8 17.6-9.7 8.7-16.2-18-3.7 20.5-12.8-2.3 5.6-30.4.6-3.1c.5-3 3.1-5.2 6.1-5.3l2.8-.1.1-.1.1.1 31.8-1.3.5 13z" fill-rule="evenodd"/></g></svg>
